<mxfile host="app.diagrams.net" modified="2021-08-12T04:57:02.241Z" agent="5.0 (Windows NT 10.0; Win64; x64) AppleWebKit/537.36 (KHTML, like Gecko) Chrome/92.0.4515.131 Safari/537.36" etag="xEOcHGrrFsn_YRV3SIpa" version="14.9.4" type="github">
  <diagram id="AYthRm2m7FlC3DLxdr1J" name="Page-1">
    <mxGraphModel dx="2031" dy="1009" grid="1" gridSize="10" guides="1" tooltips="1" connect="1" arrows="1" fold="1" page="1" pageScale="1" pageWidth="827" pageHeight="1169" math="0" shadow="0">
      <root>
        <mxCell id="0" />
        <mxCell id="1" parent="0" />
        <mxCell id="wU05Sa--kA8XbPVH1Ixm-2" value="" style="rounded=1;whiteSpace=wrap;html=1;fillColor=none;dashed=1;" vertex="1" parent="1">
          <mxGeometry x="40" y="40" width="720" height="100" as="geometry" />
        </mxCell>
        <mxCell id="wU05Sa--kA8XbPVH1Ixm-3" value="主工程仓库" style="text;html=1;strokeColor=none;fillColor=none;align=left;verticalAlign=middle;whiteSpace=wrap;rounded=0;dashed=1;fontSize=16;fontStyle=1" vertex="1" parent="1">
          <mxGeometry x="20" y="40" width="20" height="100" as="geometry" />
        </mxCell>
        <mxCell id="wU05Sa--kA8XbPVH1Ixm-5" value="ftnn_src&lt;br&gt;牛牛 &amp;amp; MM" style="rounded=0;whiteSpace=wrap;html=1;fontSize=16;fillColor=#d5e8d4;align=center;strokeColor=#82b366;" vertex="1" parent="1">
          <mxGeometry x="60" y="60" width="680" height="60" as="geometry" />
        </mxCell>
        <mxCell id="wU05Sa--kA8XbPVH1Ixm-6" value="FTToken&lt;br&gt;令牌" style="rounded=0;whiteSpace=wrap;html=1;fontSize=16;fillColor=#d5e8d4;align=center;strokeColor=#82b366;" vertex="1" parent="1">
          <mxGeometry x="820" y="60" width="120" height="60" as="geometry" />
        </mxCell>
        <mxCell id="wU05Sa--kA8XbPVH1Ixm-7" value="" style="rounded=1;whiteSpace=wrap;html=1;fillColor=none;dashed=1;" vertex="1" parent="1">
          <mxGeometry x="40" y="180" width="720" height="100" as="geometry" />
        </mxCell>
        <mxCell id="wU05Sa--kA8XbPVH1Ixm-8" value="quote&lt;br&gt;行数" style="rounded=0;whiteSpace=wrap;html=1;fontSize=16;fillColor=#fff2cc;align=center;strokeColor=#d6b656;" vertex="1" parent="1">
          <mxGeometry x="60" y="200" width="120" height="60" as="geometry" />
        </mxCell>
        <mxCell id="wU05Sa--kA8XbPVH1Ixm-9" value="sns&lt;br&gt;资社" style="rounded=0;whiteSpace=wrap;html=1;fontSize=16;fillColor=#fff2cc;align=center;strokeColor=#d6b656;" vertex="1" parent="1">
          <mxGeometry x="200" y="200" width="120" height="60" as="geometry" />
        </mxCell>
        <mxCell id="wU05Sa--kA8XbPVH1Ixm-10" value="trade&lt;br&gt;交易" style="rounded=0;whiteSpace=wrap;html=1;fontSize=16;fillColor=#fff2cc;align=center;strokeColor=#d6b656;" vertex="1" parent="1">
          <mxGeometry x="340" y="200" width="120" height="60" as="geometry" />
        </mxCell>
        <mxCell id="wU05Sa--kA8XbPVH1Ixm-11" value="basis&lt;br&gt;基础" style="rounded=0;whiteSpace=wrap;html=1;fontSize=16;fillColor=#fff2cc;align=center;strokeColor=#d6b656;" vertex="1" parent="1">
          <mxGeometry x="480" y="200" width="120" height="60" as="geometry" />
        </mxCell>
        <mxCell id="wU05Sa--kA8XbPVH1Ixm-12" value="moomoo&lt;br&gt;MM业务" style="rounded=0;whiteSpace=wrap;html=1;fontSize=16;fillColor=#fff2cc;align=center;strokeColor=#d6b656;" vertex="1" parent="1">
          <mxGeometry x="620" y="200" width="120" height="60" as="geometry" />
        </mxCell>
        <mxCell id="wU05Sa--kA8XbPVH1Ixm-13" value="业务模块仓库" style="text;html=1;strokeColor=none;fillColor=none;align=left;verticalAlign=middle;whiteSpace=wrap;rounded=0;dashed=1;fontSize=16;fontStyle=1" vertex="1" parent="1">
          <mxGeometry x="20" y="180" width="20" height="100" as="geometry" />
        </mxCell>
        <mxCell id="wU05Sa--kA8XbPVH1Ixm-14" value="" style="rounded=1;whiteSpace=wrap;html=1;fillColor=none;dashed=1;" vertex="1" parent="1">
          <mxGeometry x="40" y="320" width="720" height="200" as="geometry" />
        </mxCell>
        <mxCell id="wU05Sa--kA8XbPVH1Ixm-15" value="ftnn_res&lt;br&gt;资源" style="rounded=0;whiteSpace=wrap;html=1;fontSize=16;fillColor=#f5f5f5;align=center;strokeColor=#666666;fontColor=#333333;" vertex="1" parent="1">
          <mxGeometry x="60" y="340" width="120" height="60" as="geometry" />
        </mxCell>
        <mxCell id="wU05Sa--kA8XbPVH1Ixm-16" value="nnprotobuf&lt;br&gt;协议" style="rounded=0;whiteSpace=wrap;html=1;fontSize=16;fillColor=#f5f5f5;align=center;strokeColor=#666666;fontColor=#333333;" vertex="1" parent="1">
          <mxGeometry x="200" y="340" width="120" height="60" as="geometry" />
        </mxCell>
        <mxCell id="wU05Sa--kA8XbPVH1Ixm-17" value="nnframework&lt;br&gt;公共框架" style="rounded=0;whiteSpace=wrap;html=1;fontSize=16;fillColor=#f5f5f5;align=center;strokeColor=#666666;fontColor=#333333;" vertex="1" parent="1">
          <mxGeometry x="340" y="340" width="120" height="60" as="geometry" />
        </mxCell>
        <mxCell id="wU05Sa--kA8XbPVH1Ixm-18" value="ftuikit&lt;br&gt;组件库" style="rounded=0;whiteSpace=wrap;html=1;fontSize=16;fillColor=#f5f5f5;align=center;strokeColor=#666666;fontColor=#333333;" vertex="1" parent="1">
          <mxGeometry x="480" y="340" width="120" height="60" as="geometry" />
        </mxCell>
        <mxCell id="wU05Sa--kA8XbPVH1Ixm-19" value="unittest_lib&lt;br&gt;单元测试框架" style="rounded=0;whiteSpace=wrap;html=1;fontSize=16;fillColor=#f5f5f5;align=center;strokeColor=#666666;fontColor=#333333;" vertex="1" parent="1">
          <mxGeometry x="620" y="340" width="120" height="60" as="geometry" />
        </mxCell>
        <mxCell id="wU05Sa--kA8XbPVH1Ixm-20" value="公共模块仓库" style="text;html=1;strokeColor=none;fillColor=none;align=left;verticalAlign=middle;whiteSpace=wrap;rounded=0;dashed=1;fontSize=16;fontStyle=1" vertex="1" parent="1">
          <mxGeometry x="20" y="320" width="20" height="200" as="geometry" />
        </mxCell>
        <mxCell id="wU05Sa--kA8XbPVH1Ixm-21" value="FABC&lt;br&gt;基础模块" style="rounded=0;whiteSpace=wrap;html=1;fontSize=16;fillColor=#f5f5f5;align=center;strokeColor=#666666;fontColor=#333333;" vertex="1" parent="1">
          <mxGeometry x="60" y="440" width="680" height="60" as="geometry" />
        </mxCell>
        <mxCell id="wU05Sa--kA8XbPVH1Ixm-23" value="" style="shape=flexArrow;endArrow=classic;html=1;fontSize=16;" edge="1" parent="1" source="wU05Sa--kA8XbPVH1Ixm-14" target="wU05Sa--kA8XbPVH1Ixm-7">
          <mxGeometry width="50" height="50" relative="1" as="geometry">
            <mxPoint x="320" y="580" as="sourcePoint" />
            <mxPoint x="370" y="530" as="targetPoint" />
          </mxGeometry>
        </mxCell>
        <mxCell id="wU05Sa--kA8XbPVH1Ixm-24" value="" style="rounded=1;whiteSpace=wrap;html=1;fillColor=none;dashed=1;" vertex="1" parent="1">
          <mxGeometry x="800" y="40" width="160" height="100" as="geometry" />
        </mxCell>
        <mxCell id="wU05Sa--kA8XbPVH1Ixm-25" value="" style="shape=flexArrow;endArrow=classic;html=1;fontSize=16;" edge="1" parent="1" source="wU05Sa--kA8XbPVH1Ixm-7" target="wU05Sa--kA8XbPVH1Ixm-2">
          <mxGeometry width="50" height="50" relative="1" as="geometry">
            <mxPoint x="310" y="180" as="sourcePoint" />
            <mxPoint x="310" y="139.9966666666666" as="targetPoint" />
          </mxGeometry>
        </mxCell>
        <mxCell id="wU05Sa--kA8XbPVH1Ixm-26" value="" style="rounded=1;whiteSpace=wrap;html=1;fillColor=none;dashed=1;" vertex="1" parent="1">
          <mxGeometry x="800" y="180" width="160" height="340" as="geometry" />
        </mxCell>
        <mxCell id="wU05Sa--kA8XbPVH1Ixm-27" value="ThirdDep&lt;br&gt;三方依赖" style="rounded=0;whiteSpace=wrap;html=1;fontSize=16;fillColor=#fff2cc;align=center;strokeColor=#d6b656;" vertex="1" parent="1">
          <mxGeometry x="820" y="200" width="120" height="60" as="geometry" />
        </mxCell>
        <mxCell id="wU05Sa--kA8XbPVH1Ixm-28" value="sdk_wrapper&lt;br&gt;三方封装" style="rounded=0;whiteSpace=wrap;html=1;fontSize=16;fillColor=#fff2cc;align=center;strokeColor=#d6b656;" vertex="1" parent="1">
          <mxGeometry x="820" y="280" width="120" height="60" as="geometry" />
        </mxCell>
        <mxCell id="wU05Sa--kA8XbPVH1Ixm-29" value="FutuTool&lt;br&gt;编译工具" style="rounded=0;whiteSpace=wrap;html=1;fontSize=16;fillColor=#fff2cc;align=center;strokeColor=#d6b656;" vertex="1" parent="1">
          <mxGeometry x="820" y="360" width="120" height="60" as="geometry" />
        </mxCell>
        <mxCell id="wU05Sa--kA8XbPVH1Ixm-30" value="ftpack&lt;br&gt;独立功能" style="rounded=0;whiteSpace=wrap;html=1;fontSize=16;fillColor=#fff2cc;align=center;strokeColor=#d6b656;" vertex="1" parent="1">
          <mxGeometry x="820" y="440" width="120" height="60" as="geometry" />
        </mxCell>
        <mxCell id="wU05Sa--kA8XbPVH1Ixm-31" value="其他独立仓库" style="text;html=1;strokeColor=none;fillColor=none;align=left;verticalAlign=middle;whiteSpace=wrap;rounded=0;dashed=1;fontSize=16;fontStyle=1" vertex="1" parent="1">
          <mxGeometry x="960" y="180" width="20" height="340" as="geometry" />
        </mxCell>
      </root>
    </mxGraphModel>
  </diagram>
</mxfile>
